<svg xmlns="http://www.w3.org/2000/svg" xml:space="preserve" id="Layer_1" x="0" y="0" viewBox="0 0 85.6 96.6"><style>.st2,.st5,.st6{display:inline}.st5,.st6{fill:none;stroke:#ed1c24;stroke-width:.3;stroke-miterlimit:10;stroke-dasharray:2}.st6{stroke-dasharray:1.9999}.st8,.st9{fill:#ed1c24}.st10,.st11,.st9{display:inline}.st10{opacity:.15;fill:#ed1c24;enable-background:new}.st11{fill:none;stroke:#ed1c24;stroke-width:.317;stroke-miterlimit:10;stroke-dasharray:2.1132}</style><path id="Logo" d="m46.5 17.3 15.3 8.8c.6.3.6 1.2 0 1.5L43.6 38.1c-.6.3-1.2.3-1.7 0L23.8 27.6c-.6-.3-.6-1.2 0-1.5L39 17.3V0L0 22.5v45.1-.2.2L15 59V41.3c0-.6.7-1.1 1.3-.7l18.2 10.5c.6.3.9.9.9 1.5v21c0 .6-.7 1.1-1.3.7l-15.3-8.8-15 8.6 39 22.5 39-22.5-15-8.6-15.3 8.8c-.5.3-1.3-.1-1.3-.7v-21c0-.6.3-1.2.9-1.5l18.2-10.5c.5-.3 1.3.1 1.3.7V59l15 8.6V22.5L46.5 0z" style="fill:#fff"/></svg>